<mxfile host="app.diagrams.net" modified="2023-08-02T23:27:53.643Z" agent="Mozilla/5.0 (Windows NT 10.0; Win64; x64) AppleWebKit/537.36 (KHTML, like Gecko) Chrome/115.0.0.0 Safari/537.36" etag="67wzkGf8mpM1liNEjMB5" version="21.6.6" type="device">
  <diagram id="C5RBs43oDa-KdzZeNtuy" name="Page-1">
    <mxGraphModel dx="3617" dy="2449" grid="1" gridSize="10" guides="1" tooltips="1" connect="1" arrows="1" fold="1" page="1" pageScale="1" pageWidth="827" pageHeight="1169" math="0" shadow="0">
      <root>
        <mxCell id="WIyWlLk6GJQsqaUBKTNV-0" />
        <mxCell id="WIyWlLk6GJQsqaUBKTNV-1" parent="WIyWlLk6GJQsqaUBKTNV-0" />
        <mxCell id="TyoLhjvH8ECm9vrWuiLM-12" value="Passenger State" style="swimlane;startSize=20;horizontal=1;childLayout=flowLayout;flowOrientation=north;resizable=0;interRankCellSpacing=50;containerType=tree;fontSize=12;movable=0;rotatable=0;deletable=0;editable=0;locked=1;connectable=0;container=0;labelBackgroundColor=none;rounded=1;swimlaneLine=0;" vertex="1" parent="WIyWlLk6GJQsqaUBKTNV-1">
          <mxGeometry x="-92" y="-216" width="1122" height="1136" as="geometry">
            <mxRectangle x="-80" y="30" width="130" height="30" as="alternateBounds" />
          </mxGeometry>
        </mxCell>
        <mxCell id="TyoLhjvH8ECm9vrWuiLM-122" value="" style="edgeStyle=none;curved=1;rounded=1;orthogonalLoop=1;jettySize=auto;html=1;fontSize=12;startSize=8;endSize=8;labelBackgroundColor=none;fontColor=default;" edge="1" parent="WIyWlLk6GJQsqaUBKTNV-1" source="TyoLhjvH8ECm9vrWuiLM-121" target="TyoLhjvH8ECm9vrWuiLM-13">
          <mxGeometry relative="1" as="geometry" />
        </mxCell>
        <mxCell id="TyoLhjvH8ECm9vrWuiLM-150" value="" style="edgeStyle=none;curved=1;rounded=1;orthogonalLoop=1;jettySize=auto;html=1;fontSize=12;startSize=8;endSize=8;labelBackgroundColor=none;fontColor=default;" edge="1" parent="WIyWlLk6GJQsqaUBKTNV-1" source="TyoLhjvH8ECm9vrWuiLM-13" target="TyoLhjvH8ECm9vrWuiLM-149">
          <mxGeometry relative="1" as="geometry" />
        </mxCell>
        <mxCell id="TyoLhjvH8ECm9vrWuiLM-13" value="Wandering" style="whiteSpace=wrap;html=1;labelBackgroundColor=none;rounded=1;" vertex="1" parent="WIyWlLk6GJQsqaUBKTNV-1">
          <mxGeometry x="-62" width="100" height="40" as="geometry" />
        </mxCell>
        <mxCell id="TyoLhjvH8ECm9vrWuiLM-28" value="" style="html=1;rounded=1;curved=1;sourcePerimeterSpacing=0;targetPerimeterSpacing=0;startSize=6;endSize=6;orthogonal=1;edgeStyle=orthogonalEdgeStyle;entryX=0;entryY=0.5;entryDx=0;entryDy=0;labelBackgroundColor=none;fontColor=default;" edge="1" target="TyoLhjvH8ECm9vrWuiLM-29" source="TyoLhjvH8ECm9vrWuiLM-16" parent="WIyWlLk6GJQsqaUBKTNV-1">
          <mxGeometry relative="1" as="geometry">
            <mxPoint x="1865.5796141975306" y="3254" as="sourcePoint" />
            <mxPoint x="359.58" y="306" as="targetPoint" />
          </mxGeometry>
        </mxCell>
        <mxCell id="TyoLhjvH8ECm9vrWuiLM-29" value="End State" style="whiteSpace=wrap;html=1;labelBackgroundColor=none;rounded=1;" vertex="1" parent="WIyWlLk6GJQsqaUBKTNV-1">
          <mxGeometry x="347.58" y="280" width="100" height="40" as="geometry" />
        </mxCell>
        <mxCell id="TyoLhjvH8ECm9vrWuiLM-84" style="edgeStyle=orthogonalEdgeStyle;rounded=1;orthogonalLoop=1;jettySize=auto;html=1;exitX=1;exitY=0.5;exitDx=0;exitDy=0;exitPerimeter=0;entryX=0;entryY=0.5;entryDx=0;entryDy=0;curved=1;labelBackgroundColor=none;fontColor=default;" edge="1" parent="WIyWlLk6GJQsqaUBKTNV-1" source="TyoLhjvH8ECm9vrWuiLM-38" target="TyoLhjvH8ECm9vrWuiLM-16">
          <mxGeometry relative="1" as="geometry" />
        </mxCell>
        <mxCell id="TyoLhjvH8ECm9vrWuiLM-87" value="&lt;b&gt;No&lt;/b&gt;" style="edgeLabel;html=1;align=center;verticalAlign=middle;resizable=0;points=[];labelBackgroundColor=none;rounded=1;" vertex="1" connectable="0" parent="TyoLhjvH8ECm9vrWuiLM-84">
          <mxGeometry x="-0.2152" y="1" relative="1" as="geometry">
            <mxPoint as="offset" />
          </mxGeometry>
        </mxCell>
        <mxCell id="TyoLhjvH8ECm9vrWuiLM-130" style="edgeStyle=orthogonalEdgeStyle;curved=1;rounded=1;orthogonalLoop=1;jettySize=auto;html=1;entryX=0.039;entryY=0.625;entryDx=0;entryDy=0;entryPerimeter=0;fontSize=12;startSize=8;endSize=8;exitX=0.5;exitY=1;exitDx=0;exitDy=0;exitPerimeter=0;labelBackgroundColor=none;fontColor=default;" edge="1" parent="WIyWlLk6GJQsqaUBKTNV-1" source="TyoLhjvH8ECm9vrWuiLM-38" target="TyoLhjvH8ECm9vrWuiLM-128">
          <mxGeometry relative="1" as="geometry" />
        </mxCell>
        <mxCell id="TyoLhjvH8ECm9vrWuiLM-136" value="&lt;b&gt;Yes&lt;/b&gt;" style="edgeLabel;html=1;align=center;verticalAlign=middle;resizable=0;points=[];fontSize=16;labelBackgroundColor=none;rounded=1;" vertex="1" connectable="0" parent="TyoLhjvH8ECm9vrWuiLM-130">
          <mxGeometry x="-0.2268" y="17" relative="1" as="geometry">
            <mxPoint as="offset" />
          </mxGeometry>
        </mxCell>
        <mxCell id="TyoLhjvH8ECm9vrWuiLM-38" value="Want to travel?" style="strokeWidth=2;html=1;shape=mxgraph.flowchart.decision;whiteSpace=wrap;labelBackgroundColor=none;rounded=1;" vertex="1" parent="WIyWlLk6GJQsqaUBKTNV-1">
          <mxGeometry x="-60" y="310" width="100" height="100" as="geometry" />
        </mxCell>
        <mxCell id="TyoLhjvH8ECm9vrWuiLM-16" value="Out of screen" style="whiteSpace=wrap;html=1;labelBackgroundColor=none;rounded=1;" vertex="1" parent="WIyWlLk6GJQsqaUBKTNV-1">
          <mxGeometry x="175.57999999999998" y="280" width="100" height="40" as="geometry" />
        </mxCell>
        <mxCell id="TyoLhjvH8ECm9vrWuiLM-103" value="" style="edgeStyle=orthogonalEdgeStyle;curved=1;rounded=1;orthogonalLoop=1;jettySize=auto;html=1;fontSize=12;startSize=8;endSize=8;labelBackgroundColor=none;fontColor=default;" edge="1" parent="WIyWlLk6GJQsqaUBKTNV-1" source="TyoLhjvH8ECm9vrWuiLM-69" target="TyoLhjvH8ECm9vrWuiLM-102">
          <mxGeometry relative="1" as="geometry" />
        </mxCell>
        <mxCell id="TyoLhjvH8ECm9vrWuiLM-104" value="No" style="edgeLabel;html=1;align=center;verticalAlign=middle;resizable=0;points=[];fontSize=16;labelBackgroundColor=none;rounded=1;" vertex="1" connectable="0" parent="TyoLhjvH8ECm9vrWuiLM-103">
          <mxGeometry x="-0.0285" y="2" relative="1" as="geometry">
            <mxPoint as="offset" />
          </mxGeometry>
        </mxCell>
        <mxCell id="TyoLhjvH8ECm9vrWuiLM-137" style="edgeStyle=orthogonalEdgeStyle;curved=1;rounded=1;orthogonalLoop=1;jettySize=auto;html=1;entryX=0.478;entryY=0.013;entryDx=0;entryDy=0;entryPerimeter=0;fontSize=12;startSize=8;endSize=8;labelBackgroundColor=none;fontColor=default;" edge="1" parent="WIyWlLk6GJQsqaUBKTNV-1" source="TyoLhjvH8ECm9vrWuiLM-69" target="TyoLhjvH8ECm9vrWuiLM-97">
          <mxGeometry relative="1" as="geometry" />
        </mxCell>
        <mxCell id="TyoLhjvH8ECm9vrWuiLM-69" value="Long Wait Time?" style="html=1;whiteSpace=wrap;aspect=fixed;shape=isoRectangle;labelBackgroundColor=none;rounded=1;" vertex="1" parent="WIyWlLk6GJQsqaUBKTNV-1">
          <mxGeometry x="419.58" y="392.5" width="150" height="90" as="geometry" />
        </mxCell>
        <mxCell id="TyoLhjvH8ECm9vrWuiLM-118" value="" style="edgeStyle=none;curved=1;rounded=1;orthogonalLoop=1;jettySize=auto;html=1;fontSize=12;startSize=8;endSize=8;labelBackgroundColor=none;fontColor=default;" edge="1" parent="WIyWlLk6GJQsqaUBKTNV-1" source="TyoLhjvH8ECm9vrWuiLM-97" target="TyoLhjvH8ECm9vrWuiLM-117">
          <mxGeometry relative="1" as="geometry" />
        </mxCell>
        <mxCell id="TyoLhjvH8ECm9vrWuiLM-97" value="Hotel Accommodation" style="whiteSpace=wrap;html=1;fontSize=16;labelBackgroundColor=none;rounded=1;" vertex="1" parent="WIyWlLk6GJQsqaUBKTNV-1">
          <mxGeometry x="443.58" y="556" width="120" height="60" as="geometry" />
        </mxCell>
        <mxCell id="TyoLhjvH8ECm9vrWuiLM-111" value="" style="edgeStyle=orthogonalEdgeStyle;curved=1;rounded=1;orthogonalLoop=1;jettySize=auto;html=1;fontSize=12;startSize=8;endSize=8;entryX=0;entryY=0.5;entryDx=0;entryDy=0;labelBackgroundColor=none;fontColor=default;" edge="1" parent="WIyWlLk6GJQsqaUBKTNV-1" source="TyoLhjvH8ECm9vrWuiLM-102" target="TyoLhjvH8ECm9vrWuiLM-110">
          <mxGeometry relative="1" as="geometry" />
        </mxCell>
        <mxCell id="TyoLhjvH8ECm9vrWuiLM-102" value="to the waiting lobby" style="whiteSpace=wrap;html=1;fontSize=16;labelBackgroundColor=none;rounded=1;" vertex="1" parent="WIyWlLk6GJQsqaUBKTNV-1">
          <mxGeometry x="669.58" y="450" width="120" height="60" as="geometry" />
        </mxCell>
        <mxCell id="TyoLhjvH8ECm9vrWuiLM-113" value="" style="edgeStyle=orthogonalEdgeStyle;rounded=1;orthogonalLoop=1;jettySize=auto;html=1;fontSize=12;startSize=8;endSize=8;curved=1;labelBackgroundColor=none;fontColor=default;" edge="1" parent="WIyWlLk6GJQsqaUBKTNV-1" source="TyoLhjvH8ECm9vrWuiLM-110" target="TyoLhjvH8ECm9vrWuiLM-112">
          <mxGeometry relative="1" as="geometry" />
        </mxCell>
        <mxCell id="TyoLhjvH8ECm9vrWuiLM-110" value="waiting for train to come" style="ellipse;whiteSpace=wrap;html=1;fontSize=16;labelBackgroundColor=none;rounded=1;" vertex="1" parent="WIyWlLk6GJQsqaUBKTNV-1">
          <mxGeometry x="771.58" y="585" width="138.42" height="151" as="geometry" />
        </mxCell>
        <mxCell id="TyoLhjvH8ECm9vrWuiLM-114" style="edgeStyle=orthogonalEdgeStyle;curved=1;rounded=1;orthogonalLoop=1;jettySize=auto;html=1;entryX=1;entryY=0.5;entryDx=0;entryDy=0;fontSize=12;startSize=8;endSize=8;labelBackgroundColor=none;fontColor=default;" edge="1" parent="WIyWlLk6GJQsqaUBKTNV-1" source="TyoLhjvH8ECm9vrWuiLM-112" target="TyoLhjvH8ECm9vrWuiLM-29">
          <mxGeometry relative="1" as="geometry" />
        </mxCell>
        <mxCell id="TyoLhjvH8ECm9vrWuiLM-112" value="going to enter train" style="whiteSpace=wrap;html=1;fontSize=16;labelBackgroundColor=none;rounded=1;" vertex="1" parent="WIyWlLk6GJQsqaUBKTNV-1">
          <mxGeometry x="766.58" y="376" width="120" height="60" as="geometry" />
        </mxCell>
        <mxCell id="TyoLhjvH8ECm9vrWuiLM-119" style="edgeStyle=orthogonalEdgeStyle;rounded=1;orthogonalLoop=1;jettySize=auto;html=1;entryX=0;entryY=1;entryDx=0;entryDy=0;fontSize=12;startSize=8;endSize=8;curved=1;labelBackgroundColor=none;fontColor=default;" edge="1" parent="WIyWlLk6GJQsqaUBKTNV-1" source="TyoLhjvH8ECm9vrWuiLM-117" target="TyoLhjvH8ECm9vrWuiLM-102">
          <mxGeometry relative="1" as="geometry" />
        </mxCell>
        <mxCell id="TyoLhjvH8ECm9vrWuiLM-117" value="Waiting for time of departure" style="ellipse;whiteSpace=wrap;html=1;fontSize=16;labelBackgroundColor=none;rounded=1;" vertex="1" parent="WIyWlLk6GJQsqaUBKTNV-1">
          <mxGeometry x="477.58" y="656" width="145" height="150" as="geometry" />
        </mxCell>
        <mxCell id="TyoLhjvH8ECm9vrWuiLM-140" value="" style="edgeStyle=none;curved=1;rounded=1;orthogonalLoop=1;jettySize=auto;html=1;fontSize=12;startSize=8;endSize=8;labelBackgroundColor=none;fontColor=default;" edge="1" parent="WIyWlLk6GJQsqaUBKTNV-1" source="TyoLhjvH8ECm9vrWuiLM-121" target="TyoLhjvH8ECm9vrWuiLM-139">
          <mxGeometry relative="1" as="geometry" />
        </mxCell>
        <mxCell id="TyoLhjvH8ECm9vrWuiLM-121" value="Awake State" style="whiteSpace=wrap;html=1;fontSize=16;labelBackgroundColor=none;rounded=1;" vertex="1" parent="WIyWlLk6GJQsqaUBKTNV-1">
          <mxGeometry x="-60" y="-100" width="100" height="40" as="geometry" />
        </mxCell>
        <mxCell id="TyoLhjvH8ECm9vrWuiLM-135" style="edgeStyle=orthogonalEdgeStyle;curved=1;rounded=1;orthogonalLoop=1;jettySize=auto;html=1;entryX=0;entryY=0.438;entryDx=0;entryDy=0;entryPerimeter=0;fontSize=12;startSize=8;endSize=8;labelBackgroundColor=none;fontColor=default;" edge="1" parent="WIyWlLk6GJQsqaUBKTNV-1" source="TyoLhjvH8ECm9vrWuiLM-128" target="TyoLhjvH8ECm9vrWuiLM-132">
          <mxGeometry relative="1" as="geometry" />
        </mxCell>
        <mxCell id="TyoLhjvH8ECm9vrWuiLM-128" value="List&amp;lt;Queue/Flow&amp;gt;" style="ellipse;whiteSpace=wrap;html=1;rounded=1;fontSize=16;labelBackgroundColor=none;" vertex="1" parent="WIyWlLk6GJQsqaUBKTNV-1">
          <mxGeometry x="119.58" y="566" width="140" height="140" as="geometry" />
        </mxCell>
        <mxCell id="TyoLhjvH8ECm9vrWuiLM-134" style="edgeStyle=orthogonalEdgeStyle;curved=1;rounded=1;orthogonalLoop=1;jettySize=auto;html=1;entryX=0.01;entryY=0.505;entryDx=0;entryDy=0;entryPerimeter=0;fontSize=12;startSize=8;endSize=8;labelBackgroundColor=none;fontColor=default;" edge="1" parent="WIyWlLk6GJQsqaUBKTNV-1" source="TyoLhjvH8ECm9vrWuiLM-132" target="TyoLhjvH8ECm9vrWuiLM-69">
          <mxGeometry relative="1" as="geometry" />
        </mxCell>
        <mxCell id="TyoLhjvH8ECm9vrWuiLM-132" value="Self Ticketing/checkout" style="ellipse;whiteSpace=wrap;html=1;fontSize=16;rounded=1;labelBackgroundColor=none;" vertex="1" parent="WIyWlLk6GJQsqaUBKTNV-1">
          <mxGeometry x="239.57999999999998" y="392.5" width="145" height="145" as="geometry" />
        </mxCell>
        <mxCell id="TyoLhjvH8ECm9vrWuiLM-142" value="" style="edgeStyle=none;curved=1;rounded=1;orthogonalLoop=1;jettySize=auto;html=1;fontSize=12;startSize=8;endSize=8;labelBackgroundColor=none;fontColor=default;" edge="1" parent="WIyWlLk6GJQsqaUBKTNV-1" source="TyoLhjvH8ECm9vrWuiLM-139" target="TyoLhjvH8ECm9vrWuiLM-141">
          <mxGeometry relative="1" as="geometry" />
        </mxCell>
        <mxCell id="TyoLhjvH8ECm9vrWuiLM-139" value="Exited from train" style="whiteSpace=wrap;html=1;fontSize=16;labelBackgroundColor=none;rounded=1;" vertex="1" parent="WIyWlLk6GJQsqaUBKTNV-1">
          <mxGeometry x="100" y="-110" width="120" height="60" as="geometry" />
        </mxCell>
        <mxCell id="TyoLhjvH8ECm9vrWuiLM-157" value="" style="edgeStyle=none;curved=1;rounded=1;orthogonalLoop=1;jettySize=auto;html=1;fontSize=12;startSize=8;endSize=8;labelBackgroundColor=none;fontColor=default;" edge="1" parent="WIyWlLk6GJQsqaUBKTNV-1" source="TyoLhjvH8ECm9vrWuiLM-141" target="TyoLhjvH8ECm9vrWuiLM-156">
          <mxGeometry relative="1" as="geometry" />
        </mxCell>
        <mxCell id="TyoLhjvH8ECm9vrWuiLM-141" value="Want entertainment" style="rhombus;whiteSpace=wrap;html=1;fontSize=16;labelBackgroundColor=none;rounded=1;" vertex="1" parent="WIyWlLk6GJQsqaUBKTNV-1">
          <mxGeometry x="290" y="-160" width="172" height="160" as="geometry" />
        </mxCell>
        <mxCell id="TyoLhjvH8ECm9vrWuiLM-151" style="edgeStyle=none;curved=1;rounded=1;orthogonalLoop=1;jettySize=auto;html=1;entryX=0.5;entryY=0;entryDx=0;entryDy=0;entryPerimeter=0;fontSize=12;startSize=8;endSize=8;labelBackgroundColor=none;fontColor=default;" edge="1" parent="WIyWlLk6GJQsqaUBKTNV-1" source="TyoLhjvH8ECm9vrWuiLM-149" target="TyoLhjvH8ECm9vrWuiLM-38">
          <mxGeometry relative="1" as="geometry" />
        </mxCell>
        <mxCell id="TyoLhjvH8ECm9vrWuiLM-152" value="No" style="edgeLabel;html=1;align=center;verticalAlign=middle;resizable=0;points=[];fontSize=16;labelBackgroundColor=none;rounded=1;" vertex="1" connectable="0" parent="TyoLhjvH8ECm9vrWuiLM-151">
          <mxGeometry x="-0.2087" y="1" relative="1" as="geometry">
            <mxPoint as="offset" />
          </mxGeometry>
        </mxCell>
        <mxCell id="TyoLhjvH8ECm9vrWuiLM-153" style="edgeStyle=orthogonalEdgeStyle;curved=1;rounded=1;orthogonalLoop=1;jettySize=auto;html=1;entryX=0.5;entryY=0;entryDx=0;entryDy=0;fontSize=12;startSize=8;endSize=8;exitX=1;exitY=0.5;exitDx=0;exitDy=0;labelBackgroundColor=none;fontColor=default;" edge="1" parent="WIyWlLk6GJQsqaUBKTNV-1" source="TyoLhjvH8ECm9vrWuiLM-149" target="TyoLhjvH8ECm9vrWuiLM-16">
          <mxGeometry relative="1" as="geometry" />
        </mxCell>
        <mxCell id="TyoLhjvH8ECm9vrWuiLM-155" value="&lt;b&gt;Yes&lt;/b&gt;" style="edgeLabel;html=1;align=center;verticalAlign=middle;resizable=0;points=[];fontSize=16;labelBackgroundColor=none;rounded=1;" vertex="1" connectable="0" parent="TyoLhjvH8ECm9vrWuiLM-153">
          <mxGeometry x="-0.1927" y="-25" relative="1" as="geometry">
            <mxPoint as="offset" />
          </mxGeometry>
        </mxCell>
        <mxCell id="TyoLhjvH8ECm9vrWuiLM-149" value="Already travelled" style="rhombus;whiteSpace=wrap;html=1;fontSize=16;labelBackgroundColor=none;rounded=1;" vertex="1" parent="WIyWlLk6GJQsqaUBKTNV-1">
          <mxGeometry x="-92" y="90" width="171.43" height="150" as="geometry" />
        </mxCell>
        <mxCell id="TyoLhjvH8ECm9vrWuiLM-161" value="" style="edgeStyle=orthogonalEdgeStyle;curved=1;rounded=1;orthogonalLoop=1;jettySize=auto;html=1;fontSize=12;startSize=8;endSize=8;labelBackgroundColor=none;fontColor=default;" edge="1" parent="WIyWlLk6GJQsqaUBKTNV-1" source="TyoLhjvH8ECm9vrWuiLM-156" target="TyoLhjvH8ECm9vrWuiLM-158">
          <mxGeometry relative="1" as="geometry" />
        </mxCell>
        <mxCell id="TyoLhjvH8ECm9vrWuiLM-163" value="" style="edgeStyle=orthogonalEdgeStyle;curved=1;rounded=1;orthogonalLoop=1;jettySize=auto;html=1;fontSize=12;startSize=8;endSize=8;labelBackgroundColor=none;fontColor=default;" edge="1" parent="WIyWlLk6GJQsqaUBKTNV-1" source="TyoLhjvH8ECm9vrWuiLM-156" target="TyoLhjvH8ECm9vrWuiLM-162">
          <mxGeometry relative="1" as="geometry" />
        </mxCell>
        <mxCell id="TyoLhjvH8ECm9vrWuiLM-165" value="" style="edgeStyle=orthogonalEdgeStyle;curved=1;rounded=1;orthogonalLoop=1;jettySize=auto;html=1;fontSize=12;startSize=8;endSize=8;labelBackgroundColor=none;fontColor=default;" edge="1" parent="WIyWlLk6GJQsqaUBKTNV-1" source="TyoLhjvH8ECm9vrWuiLM-156" target="TyoLhjvH8ECm9vrWuiLM-164">
          <mxGeometry relative="1" as="geometry" />
        </mxCell>
        <mxCell id="TyoLhjvH8ECm9vrWuiLM-170" value="" style="edgeStyle=orthogonalEdgeStyle;curved=1;rounded=1;orthogonalLoop=1;jettySize=auto;html=1;fontSize=12;startSize=8;endSize=8;exitX=0.745;exitY=0.772;exitDx=0;exitDy=0;exitPerimeter=0;entryX=0.5;entryY=0;entryDx=0;entryDy=0;labelBackgroundColor=none;fontColor=default;" edge="1" parent="WIyWlLk6GJQsqaUBKTNV-1" source="TyoLhjvH8ECm9vrWuiLM-156" target="TyoLhjvH8ECm9vrWuiLM-169">
          <mxGeometry relative="1" as="geometry">
            <mxPoint x="509.9990529485979" y="50.00094705140202" as="sourcePoint" />
          </mxGeometry>
        </mxCell>
        <mxCell id="TyoLhjvH8ECm9vrWuiLM-156" value="What to do" style="rhombus;whiteSpace=wrap;html=1;fontSize=16;labelBackgroundColor=none;rounded=1;" vertex="1" parent="WIyWlLk6GJQsqaUBKTNV-1">
          <mxGeometry x="563.58" y="-155" width="150" height="150" as="geometry" />
        </mxCell>
        <mxCell id="TyoLhjvH8ECm9vrWuiLM-178" style="edgeStyle=orthogonalEdgeStyle;curved=1;rounded=1;orthogonalLoop=1;jettySize=auto;html=1;entryX=1;entryY=0.5;entryDx=0;entryDy=0;labelBackgroundColor=none;fontColor=default;" edge="1" parent="WIyWlLk6GJQsqaUBKTNV-1" source="TyoLhjvH8ECm9vrWuiLM-158" target="TyoLhjvH8ECm9vrWuiLM-171">
          <mxGeometry relative="1" as="geometry">
            <Array as="points">
              <mxPoint x="990" y="185" />
            </Array>
          </mxGeometry>
        </mxCell>
        <mxCell id="TyoLhjvH8ECm9vrWuiLM-158" value="Restaurant" style="whiteSpace=wrap;html=1;fontSize=16;labelBackgroundColor=none;rounded=1;" vertex="1" parent="WIyWlLk6GJQsqaUBKTNV-1">
          <mxGeometry x="900" y="-170" width="120" height="60" as="geometry" />
        </mxCell>
        <mxCell id="TyoLhjvH8ECm9vrWuiLM-177" style="edgeStyle=orthogonalEdgeStyle;curved=1;rounded=1;orthogonalLoop=1;jettySize=auto;html=1;exitX=1;exitY=0.5;exitDx=0;exitDy=0;entryX=0.5;entryY=0;entryDx=0;entryDy=0;labelBackgroundColor=none;fontColor=default;" edge="1" parent="WIyWlLk6GJQsqaUBKTNV-1" source="TyoLhjvH8ECm9vrWuiLM-162" target="TyoLhjvH8ECm9vrWuiLM-171">
          <mxGeometry relative="1" as="geometry" />
        </mxCell>
        <mxCell id="TyoLhjvH8ECm9vrWuiLM-162" value="Cafe" style="whiteSpace=wrap;html=1;fontSize=16;labelBackgroundColor=none;rounded=1;" vertex="1" parent="WIyWlLk6GJQsqaUBKTNV-1">
          <mxGeometry x="827" y="-80" width="100" height="50" as="geometry" />
        </mxCell>
        <mxCell id="TyoLhjvH8ECm9vrWuiLM-180" style="edgeStyle=orthogonalEdgeStyle;curved=1;rounded=1;orthogonalLoop=1;jettySize=auto;html=1;entryX=0;entryY=0.5;entryDx=0;entryDy=0;labelBackgroundColor=none;fontColor=default;" edge="1" parent="WIyWlLk6GJQsqaUBKTNV-1" source="TyoLhjvH8ECm9vrWuiLM-164" target="TyoLhjvH8ECm9vrWuiLM-171">
          <mxGeometry relative="1" as="geometry" />
        </mxCell>
        <mxCell id="TyoLhjvH8ECm9vrWuiLM-164" value="Library" style="whiteSpace=wrap;html=1;fontSize=16;labelBackgroundColor=none;rounded=1;" vertex="1" parent="WIyWlLk6GJQsqaUBKTNV-1">
          <mxGeometry x="669.58" y="52.37" width="75.26" height="37.63" as="geometry" />
        </mxCell>
        <mxCell id="TyoLhjvH8ECm9vrWuiLM-179" style="edgeStyle=orthogonalEdgeStyle;curved=1;rounded=1;orthogonalLoop=1;jettySize=auto;html=1;entryX=0;entryY=0;entryDx=0;entryDy=0;labelBackgroundColor=none;fontColor=default;" edge="1" parent="WIyWlLk6GJQsqaUBKTNV-1" source="TyoLhjvH8ECm9vrWuiLM-169" target="TyoLhjvH8ECm9vrWuiLM-171">
          <mxGeometry relative="1" as="geometry" />
        </mxCell>
        <mxCell id="TyoLhjvH8ECm9vrWuiLM-169" value="Rest room" style="whiteSpace=wrap;html=1;fontSize=16;labelBackgroundColor=none;rounded=1;" vertex="1" parent="WIyWlLk6GJQsqaUBKTNV-1">
          <mxGeometry x="744.84" y="-20" width="95.26" height="47.63" as="geometry" />
        </mxCell>
        <mxCell id="TyoLhjvH8ECm9vrWuiLM-182" style="edgeStyle=orthogonalEdgeStyle;curved=1;rounded=1;orthogonalLoop=1;jettySize=auto;html=1;entryX=1;entryY=1;entryDx=0;entryDy=0;exitX=0;exitY=1;exitDx=0;exitDy=0;labelBackgroundColor=none;fontColor=default;" edge="1" parent="WIyWlLk6GJQsqaUBKTNV-1" source="TyoLhjvH8ECm9vrWuiLM-171" target="TyoLhjvH8ECm9vrWuiLM-13">
          <mxGeometry relative="1" as="geometry">
            <Array as="points">
              <mxPoint x="840" y="160" />
              <mxPoint x="38" y="160" />
            </Array>
          </mxGeometry>
        </mxCell>
        <mxCell id="TyoLhjvH8ECm9vrWuiLM-171" value="Exit Station" style="rounded=1;whiteSpace=wrap;html=1;fontSize=16;labelBackgroundColor=none;" vertex="1" parent="WIyWlLk6GJQsqaUBKTNV-1">
          <mxGeometry x="840" y="160" width="100" height="50" as="geometry" />
        </mxCell>
      </root>
    </mxGraphModel>
  </diagram>
</mxfile>
